<?xml version="1.0" encoding="UTF-8" standalone="no"?>
<svg
   id="vector-layer"
   preserveAspectRatio="none"
   width="139.91614"
   height="128.8813"
   viewBox="-13.136 -57.055 139.91614 128.8813"
   version="1.1"
   sodipodi:docname="games-with-guitars.svg"
   inkscape:export-filename="games-with-guitars.svg"
   inkscape:export-xdpi="96"
   inkscape:export-ydpi="96"
   xmlns:inkscape="http://www.inkscape.org/namespaces/inkscape"
   xmlns:sodipodi="http://sodipodi.sourceforge.net/DTD/sodipodi-0.dtd"
   xmlns="http://www.w3.org/2000/svg"
   xmlns:svg="http://www.w3.org/2000/svg">
  <defs
     id="defs42" />
  <sodipodi:namedview
     id="namedview40"
     pagecolor="#ffffff"
     bordercolor="#000000"
     borderopacity="0.25"
     inkscape:showpageshadow="2"
     inkscape:pageopacity="0.0"
     inkscape:pagecheckerboard="0"
     inkscape:deskcolor="#d1d1d1"
     showgrid="false" />
  <g
     id="g37"
     transform="translate(-188.61487,-196.34313)"
     style="fill:#ffffff">
    <path
       d="m 313.833,162.055 -2.562,-12.888 c -0.563,-2.999 -3.14,-5.269 -6.246,-5.298 v -0.002 h -17.16 c -3.133,-0.002 -5.744,2.282 -6.311,5.302 l -2.558,12.886 c -0.048,0.227 -0.075,0.461 -0.073,0.702 -0.002,1.803 1.436,3.265 3.209,3.265 1.145,0 2.148,-0.606 2.718,-1.52 l 4.221,-5.27 c 0.676,0.637 1.581,1.027 2.576,1.029 2.086,-0.002 3.778,-1.719 3.778,-3.842 l 2.04,-0.001 c 0,2.122 1.694,3.841 3.779,3.841 0.979,0 1.868,-0.376 2.539,-0.993 l 4.195,5.236 c 0.57,0.912 1.574,1.52 2.715,1.52 1.775,0 3.214,-1.462 3.213,-3.266 10e-4,-0.241 -0.027,-0.474 -0.073,-0.701 m -23.878,-13.416 c 0.41,-0.417 0.878,-0.295 1.043,0.271 l -0.002,1.823 c -0.163,0.568 -0.631,0.69 -1.04,0.273 l -0.419,-0.425 c -0.41,-0.418 -0.41,-1.099 0,-1.516 l 0.418,-0.426 m -2.983,-1.997 1.791,-0.002 c 0.556,0.164 0.676,0.643 0.265,1.059 l -0.415,0.424 c -0.41,0.418 -1.082,0.418 -1.493,0 l -0.418,-0.424 c -0.411,-0.417 -0.291,-0.895 0.27,-1.057 m -1.194,4.362 c -0.41,0.419 -0.881,0.297 -1.043,-0.271 l 0.002,-1.823 c 0.16,-0.567 0.631,-0.689 1.04,-0.271 l 0.418,0.425 c 0.409,0.418 0.41,1.099 0,1.516 l -0.417,0.424 m 2.985,2 -1.794,0.001 c -0.558,-0.167 -0.678,-0.641 -0.266,-1.059 l 0.418,-0.426 c 0.41,-0.416 1.08,-0.416 1.492,0 l 0.417,0.426 c 0.409,0.418 0.289,0.892 -0.267,1.058 m 2.881,5.986 c -1.397,0.001 -2.532,-1.15 -2.532,-2.573 0,-1.421 1.135,-2.574 2.535,-2.574 1.397,0.001 2.529,1.153 2.529,2.574 0.003,1.424 -1.132,2.576 -2.532,2.573 m 11.814,-11.314 c 0.581,0.001 1.053,0.481 1.053,1.072 0,0.594 -0.471,1.075 -1.055,1.072 -0.583,0.002 -1.055,-0.478 -1.055,-1.071 0,-0.592 0.472,-1.072 1.057,-1.073 m -2.214,11.315 c -1.397,0 -2.53,-1.153 -2.531,-2.574 10e-4,-1.421 1.134,-2.574 2.531,-2.574 1.401,0.001 2.534,1.153 2.533,2.574 0,1.421 -1.132,2.573 -2.533,2.574 m 2.311,-5.951 c -0.583,0 -1.056,-0.482 -1.056,-1.074 0,-0.592 0.473,-1.073 1.056,-1.073 0.583,0 1.054,0.481 1.055,1.073 0,0.592 -0.473,1.074 -1.055,1.074 m 2.942,-6.435 c 0.582,-10e-4 1.054,0.479 1.055,1.072 -0.001,0.591 -0.473,1.072 -1.055,1.072 -0.584,0 -1.055,-0.481 -1.055,-1.072 -0.002,-0.593 0.469,-1.075 1.055,-1.072 m 0.098,5.362 c -0.583,10e-4 -1.055,-0.479 -1.053,-1.072 -0.002,-0.593 0.47,-1.074 1.054,-1.072 0.581,-0.001 1.055,0.478 1.055,1.071 -0.001,0.593 -0.474,1.074 -1.056,1.073"
       transform="rotate(-43.397494,296.41457,154.94434)"
       id="path23"
       style="fill:#ffffff" />
    <path
       d="m 282.719,152.737 c -2.294,2.295 -4.186,3.884 -4.186,3.884 l -32.229,30.41 c -3.973,-3.862 -8.476,-7.056 -15.457,-6.522 -16.689,1.262 -5.749,20.268 -27.127,21.691 -7.644,0.503 -14.903,2.182 -20.153,7.444 -13.351,13.345 -9.083,31.665 4.844,45.597 13.924,13.926 32.246,18.187 45.594,4.844 6.961,-6.956 6.728,-19.577 9.055,-27.119 3.003,-9.746 18.693,-6.447 17.974,-17.288 -0.062,-1.022 -0.313,-1.668 -0.703,-2.054 -1.952,-1.951 -7.422,2.7 -10.711,-0.591 -1.032,-1.027 -1.843,-2.843 -2.269,-5.861 l 39.678,-42.048 c -3.008,-4.682 -4.445,-8.44 -4.31,-12.387 z m -31.528,66.929 c -0.226,0.097 -0.456,0.19 -0.704,0.293 -4.446,1.828 -10.548,4.33 -12.719,11.374 -0.797,2.572 -1.293,5.425 -1.816,8.453 -1.032,5.967 -2.207,12.727 -5.859,16.382 -5.107,5.107 -11.119,7.201 -17.882,6.237 -6.62,-0.94 -13.686,-4.872 -19.89,-11.082 -6.207,-6.204 -10.139,-13.265 -11.076,-19.882 -0.967,-6.761 1.135,-12.775 6.234,-17.882 3.502,-3.502 8.624,-5.303 16.609,-5.834 14.869,-0.984 18.253,-9.643 20.492,-15.371 1.748,-4.481 2.339,-5.994 6.69,-6.325 4.526,-0.343 7.56,1.498 11.006,4.804 l -10.833,10.225 11.151,11.156 0.201,-0.213 c 0.681,2.039 1.635,3.675 2.91,4.949 1.713,1.716 3.642,2.47 5.486,2.716"
       id="path25"
       style="fill:#ffffff" />
    <circle
       cx="212.40601"
       cy="255.963"
       r="4.75"
       id="circle27"
       style="fill:#ffffff" />
    <path
       d="m 219.864,210.201 h 18.16 v 8.9 h -18.16 z"
       transform="rotate(-135.02431,228.94398,214.65093)"
       id="path29"
       style="fill:#ffffff" />
    <path
       d="m 212.166,217.903 h 8.904 v 18.157 h -8.904 z"
       transform="rotate(-44.991897,216.61808,226.98139)"
       id="path31"
       style="fill:#ffffff" />
    <path
       d="m 199.167,235.117 h 14.06 v 5.074 h -14.06 z"
       transform="rotate(45,206.19689,237.65404)"
       id="path33"
       style="fill:#ffffff" />
    <path
       d="m 222.371,244.316 c -2.309,2.319 -2.314,6.077 0.005,8.393 2.316,2.318 6.077,2.318 8.398,0 2.313,-2.318 2.313,-6.077 0,-8.393 -2.321,-2.319 -6.082,-2.319 -8.403,0"
       id="path35"
       style="fill:#ffffff" />
  </g>
</svg>
